<mxfile host="app.diagrams.net" modified="2023-11-17T20:09:08.179Z" agent="Mozilla/5.0 (Macintosh; Intel Mac OS X 10_15_7) AppleWebKit/537.36 (KHTML, like Gecko) Chrome/118.0.0.0 Safari/537.36" etag="qL5akpgQLQLI5ItBcrDm" version="22.1.2" type="github">
  <diagram name="Strona-1" id="vJo_PlwXwJMytueYmFME">
    <mxGraphModel dx="1870" dy="726" grid="1" gridSize="5" guides="1" tooltips="1" connect="1" arrows="1" fold="1" page="1" pageScale="1" pageWidth="827" pageHeight="1169" math="0" shadow="0">
      <root>
        <mxCell id="0" />
        <mxCell id="1" parent="0" />
        <mxCell id="5t5Oaj507h6tdn1SH8KS-3" style="edgeStyle=orthogonalEdgeStyle;rounded=0;orthogonalLoop=1;jettySize=auto;html=1;entryX=0;entryY=0.5;entryDx=0;entryDy=0;" edge="1" parent="1" source="ZPlOU_6iHk0x4p4LW6sb-2" target="ZPlOU_6iHk0x4p4LW6sb-3">
          <mxGeometry relative="1" as="geometry" />
        </mxCell>
        <mxCell id="5t5Oaj507h6tdn1SH8KS-4" style="edgeStyle=orthogonalEdgeStyle;rounded=0;orthogonalLoop=1;jettySize=auto;html=1;" edge="1" parent="1" source="ZPlOU_6iHk0x4p4LW6sb-2" target="ZPlOU_6iHk0x4p4LW6sb-4">
          <mxGeometry relative="1" as="geometry">
            <Array as="points">
              <mxPoint x="65" y="560" />
              <mxPoint x="65" y="560" />
            </Array>
          </mxGeometry>
        </mxCell>
        <mxCell id="5t5Oaj507h6tdn1SH8KS-5" style="edgeStyle=orthogonalEdgeStyle;rounded=0;orthogonalLoop=1;jettySize=auto;html=1;entryX=0;entryY=0.5;entryDx=0;entryDy=0;" edge="1" parent="1" source="ZPlOU_6iHk0x4p4LW6sb-2" target="ZPlOU_6iHk0x4p4LW6sb-5">
          <mxGeometry relative="1" as="geometry" />
        </mxCell>
        <mxCell id="ZPlOU_6iHk0x4p4LW6sb-2" value="&lt;h1 style=&quot;line-height: 0%;&quot;&gt;&lt;font style=&quot;font-size: 10px;&quot;&gt;app&lt;/font&gt;&lt;/h1&gt;" style="whiteSpace=wrap;html=1;aspect=fixed;strokeWidth=1;" parent="1" vertex="1">
          <mxGeometry x="15" y="545" width="30" height="30" as="geometry" />
        </mxCell>
        <mxCell id="5t5Oaj507h6tdn1SH8KS-15" style="edgeStyle=orthogonalEdgeStyle;rounded=0;orthogonalLoop=1;jettySize=auto;html=1;entryX=0;entryY=0.5;entryDx=0;entryDy=0;" edge="1" parent="1" source="ZPlOU_6iHk0x4p4LW6sb-3" target="5t5Oaj507h6tdn1SH8KS-9">
          <mxGeometry relative="1" as="geometry" />
        </mxCell>
        <mxCell id="ZPlOU_6iHk0x4p4LW6sb-3" value="overview - guma" style="rounded=0;whiteSpace=wrap;html=1;fontSize=4;" parent="1" vertex="1">
          <mxGeometry x="140" y="350" width="65" height="20" as="geometry" />
        </mxCell>
        <mxCell id="5t5Oaj507h6tdn1SH8KS-16" style="edgeStyle=orthogonalEdgeStyle;rounded=0;orthogonalLoop=1;jettySize=auto;html=1;entryX=0;entryY=0.5;entryDx=0;entryDy=0;" edge="1" parent="1" source="ZPlOU_6iHk0x4p4LW6sb-4" target="5t5Oaj507h6tdn1SH8KS-11">
          <mxGeometry relative="1" as="geometry" />
        </mxCell>
        <mxCell id="ZPlOU_6iHk0x4p4LW6sb-4" value="&lt;span style=&quot;font-size: 4px;&quot;&gt;overview - granulaty&lt;/span&gt;" style="rounded=0;whiteSpace=wrap;html=1;fontSize=6;" parent="1" vertex="1">
          <mxGeometry x="140" y="550" width="65" height="20" as="geometry" />
        </mxCell>
        <mxCell id="5t5Oaj507h6tdn1SH8KS-17" style="edgeStyle=orthogonalEdgeStyle;rounded=0;orthogonalLoop=1;jettySize=auto;html=1;entryX=0;entryY=0.5;entryDx=0;entryDy=0;" edge="1" parent="1" source="ZPlOU_6iHk0x4p4LW6sb-5" target="5t5Oaj507h6tdn1SH8KS-12">
          <mxGeometry relative="1" as="geometry" />
        </mxCell>
        <mxCell id="5t5Oaj507h6tdn1SH8KS-18" style="edgeStyle=orthogonalEdgeStyle;rounded=0;orthogonalLoop=1;jettySize=auto;html=1;" edge="1" parent="1" source="ZPlOU_6iHk0x4p4LW6sb-5" target="5t5Oaj507h6tdn1SH8KS-13">
          <mxGeometry relative="1" as="geometry" />
        </mxCell>
        <mxCell id="ZPlOU_6iHk0x4p4LW6sb-5" value="overview choise - chemia" style="rounded=0;whiteSpace=wrap;html=1;fontSize=4;" parent="1" vertex="1">
          <mxGeometry x="140" y="775" width="65" height="20" as="geometry" />
        </mxCell>
        <mxCell id="5t5Oaj507h6tdn1SH8KS-40" style="edgeStyle=orthogonalEdgeStyle;rounded=0;orthogonalLoop=1;jettySize=auto;html=1;entryX=1;entryY=0.5;entryDx=0;entryDy=0;" edge="1" parent="1" source="5t5Oaj507h6tdn1SH8KS-6" target="5t5Oaj507h6tdn1SH8KS-31">
          <mxGeometry relative="1" as="geometry" />
        </mxCell>
        <mxCell id="5t5Oaj507h6tdn1SH8KS-6" value="store" style="shape=cylinder3;whiteSpace=wrap;html=1;boundedLbl=1;backgroundOutline=1;size=15;fontSize=5;" vertex="1" parent="1">
          <mxGeometry x="251.25" y="235" width="55" height="40" as="geometry" />
        </mxCell>
        <mxCell id="5t5Oaj507h6tdn1SH8KS-9" value="counter" style="rounded=0;whiteSpace=wrap;html=1;fontSize=4;" vertex="1" parent="1">
          <mxGeometry x="242.5" y="350" width="70" height="20" as="geometry" />
        </mxCell>
        <mxCell id="5t5Oaj507h6tdn1SH8KS-10" value="counter" style="rounded=0;whiteSpace=wrap;html=1;fontSize=4;" vertex="1" parent="1">
          <mxGeometry x="350" y="760" width="70" height="20" as="geometry" />
        </mxCell>
        <mxCell id="5t5Oaj507h6tdn1SH8KS-11" value="counter" style="rounded=0;whiteSpace=wrap;html=1;fontSize=4;" vertex="1" parent="1">
          <mxGeometry x="242.5" y="550" width="70" height="20" as="geometry" />
        </mxCell>
        <mxCell id="5t5Oaj507h6tdn1SH8KS-19" style="edgeStyle=orthogonalEdgeStyle;rounded=0;orthogonalLoop=1;jettySize=auto;html=1;exitX=1;exitY=0.5;exitDx=0;exitDy=0;" edge="1" parent="1" source="5t5Oaj507h6tdn1SH8KS-12" target="5t5Oaj507h6tdn1SH8KS-10">
          <mxGeometry relative="1" as="geometry" />
        </mxCell>
        <mxCell id="5t5Oaj507h6tdn1SH8KS-12" value="chemia - okleina" style="rounded=0;whiteSpace=wrap;html=1;fontSize=4;" vertex="1" parent="1">
          <mxGeometry x="242.5" y="760" width="70" height="20" as="geometry" />
        </mxCell>
        <mxCell id="5t5Oaj507h6tdn1SH8KS-22" style="edgeStyle=orthogonalEdgeStyle;rounded=0;orthogonalLoop=1;jettySize=auto;html=1;entryX=0;entryY=0.5;entryDx=0;entryDy=0;" edge="1" parent="1" source="5t5Oaj507h6tdn1SH8KS-13" target="5t5Oaj507h6tdn1SH8KS-14">
          <mxGeometry relative="1" as="geometry" />
        </mxCell>
        <mxCell id="5t5Oaj507h6tdn1SH8KS-13" value="chemia -&amp;nbsp; ekstruzja" style="rounded=0;whiteSpace=wrap;html=1;fontSize=4;" vertex="1" parent="1">
          <mxGeometry x="242.5" y="790" width="72.5" height="20" as="geometry" />
        </mxCell>
        <mxCell id="5t5Oaj507h6tdn1SH8KS-53" style="edgeStyle=orthogonalEdgeStyle;rounded=0;orthogonalLoop=1;jettySize=auto;html=1;" edge="1" parent="1" source="5t5Oaj507h6tdn1SH8KS-14">
          <mxGeometry relative="1" as="geometry">
            <mxPoint x="384.9999999999998" y="720" as="targetPoint" />
          </mxGeometry>
        </mxCell>
        <mxCell id="5t5Oaj507h6tdn1SH8KS-14" value="counter" style="rounded=0;whiteSpace=wrap;html=1;fontSize=4;" vertex="1" parent="1">
          <mxGeometry x="350" y="790" width="70" height="20" as="geometry" />
        </mxCell>
        <mxCell id="5t5Oaj507h6tdn1SH8KS-42" style="edgeStyle=orthogonalEdgeStyle;rounded=0;orthogonalLoop=1;jettySize=auto;html=1;entryX=1;entryY=0.5;entryDx=0;entryDy=0;" edge="1" parent="1" source="5t5Oaj507h6tdn1SH8KS-23" target="5t5Oaj507h6tdn1SH8KS-30">
          <mxGeometry relative="1" as="geometry" />
        </mxCell>
        <mxCell id="5t5Oaj507h6tdn1SH8KS-45" style="edgeStyle=orthogonalEdgeStyle;rounded=0;orthogonalLoop=1;jettySize=auto;html=1;entryX=0.5;entryY=0;entryDx=0;entryDy=0;" edge="1" parent="1" source="5t5Oaj507h6tdn1SH8KS-23" target="5t5Oaj507h6tdn1SH8KS-44">
          <mxGeometry relative="1" as="geometry" />
        </mxCell>
        <mxCell id="5t5Oaj507h6tdn1SH8KS-23" value="store" style="shape=cylinder3;whiteSpace=wrap;html=1;boundedLbl=1;backgroundOutline=1;size=15;fontSize=5;" vertex="1" parent="1">
          <mxGeometry x="251.25" y="647.5" width="55" height="40" as="geometry" />
        </mxCell>
        <mxCell id="5t5Oaj507h6tdn1SH8KS-25" style="edgeStyle=orthogonalEdgeStyle;rounded=0;orthogonalLoop=1;jettySize=auto;html=1;" edge="1" parent="1" source="5t5Oaj507h6tdn1SH8KS-28" target="ZPlOU_6iHk0x4p4LW6sb-4">
          <mxGeometry relative="1" as="geometry">
            <Array as="points">
              <mxPoint x="173" y="460" />
            </Array>
          </mxGeometry>
        </mxCell>
        <mxCell id="5t5Oaj507h6tdn1SH8KS-24" value="store" style="shape=cylinder3;whiteSpace=wrap;html=1;boundedLbl=1;backgroundOutline=1;size=15;fontSize=5;" vertex="1" parent="1">
          <mxGeometry x="251.25" y="440" width="55" height="40" as="geometry" />
        </mxCell>
        <mxCell id="5t5Oaj507h6tdn1SH8KS-26" style="edgeStyle=orthogonalEdgeStyle;rounded=0;orthogonalLoop=1;jettySize=auto;html=1;entryX=0.508;entryY=-0.094;entryDx=0;entryDy=0;entryPerimeter=0;" edge="1" parent="1" source="5t5Oaj507h6tdn1SH8KS-31" target="ZPlOU_6iHk0x4p4LW6sb-3">
          <mxGeometry relative="1" as="geometry">
            <Array as="points">
              <mxPoint x="173" y="255" />
            </Array>
          </mxGeometry>
        </mxCell>
        <mxCell id="5t5Oaj507h6tdn1SH8KS-43" style="edgeStyle=orthogonalEdgeStyle;rounded=0;orthogonalLoop=1;jettySize=auto;html=1;entryX=0.5;entryY=0;entryDx=0;entryDy=0;" edge="1" parent="1" source="5t5Oaj507h6tdn1SH8KS-30" target="ZPlOU_6iHk0x4p4LW6sb-5">
          <mxGeometry relative="1" as="geometry">
            <Array as="points">
              <mxPoint x="173" y="668" />
              <mxPoint x="173" y="725" />
              <mxPoint x="173" y="725" />
            </Array>
          </mxGeometry>
        </mxCell>
        <mxCell id="5t5Oaj507h6tdn1SH8KS-30" value="send&amp;nbsp; options" style="rounded=1;whiteSpace=wrap;html=1;arcSize=40;fontColor=#000000;fillColor=#ffffc0;strokeColor=#ff0000;fontSize=4;" vertex="1" parent="1">
          <mxGeometry x="180" y="660" width="35" height="15" as="geometry" />
        </mxCell>
        <mxCell id="5t5Oaj507h6tdn1SH8KS-37" value="" style="edgeStyle=orthogonalEdgeStyle;rounded=0;orthogonalLoop=1;jettySize=auto;html=1;" edge="1" parent="1" source="5t5Oaj507h6tdn1SH8KS-24" target="5t5Oaj507h6tdn1SH8KS-28">
          <mxGeometry relative="1" as="geometry">
            <mxPoint x="250" y="510" as="sourcePoint" />
            <mxPoint x="173" y="550" as="targetPoint" />
          </mxGeometry>
        </mxCell>
        <mxCell id="5t5Oaj507h6tdn1SH8KS-28" value="send items list" style="rounded=1;whiteSpace=wrap;html=1;arcSize=40;fontColor=#000000;fillColor=#ffffc0;strokeColor=#ff0000;fontSize=4;" vertex="1" parent="1">
          <mxGeometry x="185" y="452.5" width="35" height="15" as="geometry" />
        </mxCell>
        <mxCell id="5t5Oaj507h6tdn1SH8KS-31" value="send items list" style="rounded=1;whiteSpace=wrap;html=1;arcSize=40;fontColor=#000000;fillColor=#ffffc0;strokeColor=#ff0000;fontSize=4;" vertex="1" parent="1">
          <mxGeometry x="185" y="247.5" width="35" height="15" as="geometry" />
        </mxCell>
        <mxCell id="5t5Oaj507h6tdn1SH8KS-47" style="edgeStyle=orthogonalEdgeStyle;rounded=0;orthogonalLoop=1;jettySize=auto;html=1;entryX=0.5;entryY=0;entryDx=0;entryDy=0;" edge="1" parent="1" source="5t5Oaj507h6tdn1SH8KS-44" target="5t5Oaj507h6tdn1SH8KS-13">
          <mxGeometry relative="1" as="geometry" />
        </mxCell>
        <mxCell id="5t5Oaj507h6tdn1SH8KS-44" value="send items list" style="rounded=1;whiteSpace=wrap;html=1;arcSize=40;fontColor=#000000;fillColor=#ffffc0;strokeColor=#ff0000;fontSize=4;" vertex="1" parent="1">
          <mxGeometry x="261.25" y="715" width="35" height="15" as="geometry" />
        </mxCell>
        <mxCell id="5t5Oaj507h6tdn1SH8KS-46" style="edgeStyle=orthogonalEdgeStyle;rounded=0;orthogonalLoop=1;jettySize=auto;html=1;entryX=0.528;entryY=0.068;entryDx=0;entryDy=0;entryPerimeter=0;" edge="1" parent="1" source="5t5Oaj507h6tdn1SH8KS-44" target="5t5Oaj507h6tdn1SH8KS-12">
          <mxGeometry relative="1" as="geometry" />
        </mxCell>
        <mxCell id="5t5Oaj507h6tdn1SH8KS-48" style="edgeStyle=orthogonalEdgeStyle;rounded=0;orthogonalLoop=1;jettySize=auto;html=1;entryX=0.47;entryY=1.019;entryDx=0;entryDy=0;entryPerimeter=0;" edge="1" parent="1" source="5t5Oaj507h6tdn1SH8KS-11" target="5t5Oaj507h6tdn1SH8KS-24">
          <mxGeometry relative="1" as="geometry" />
        </mxCell>
        <mxCell id="5t5Oaj507h6tdn1SH8KS-49" style="edgeStyle=orthogonalEdgeStyle;rounded=0;orthogonalLoop=1;jettySize=auto;html=1;entryX=0.47;entryY=1.019;entryDx=0;entryDy=0;entryPerimeter=0;" edge="1" parent="1" source="5t5Oaj507h6tdn1SH8KS-9" target="5t5Oaj507h6tdn1SH8KS-6">
          <mxGeometry relative="1" as="geometry" />
        </mxCell>
        <mxCell id="5t5Oaj507h6tdn1SH8KS-51" style="edgeStyle=orthogonalEdgeStyle;rounded=0;orthogonalLoop=1;jettySize=auto;html=1;entryX=1;entryY=0.5;entryDx=0;entryDy=0;entryPerimeter=0;" edge="1" parent="1" source="5t5Oaj507h6tdn1SH8KS-10" target="5t5Oaj507h6tdn1SH8KS-23">
          <mxGeometry relative="1" as="geometry">
            <Array as="points">
              <mxPoint x="385" y="668" />
            </Array>
          </mxGeometry>
        </mxCell>
        <mxCell id="5t5Oaj507h6tdn1SH8KS-56" value="send count" style="rounded=1;whiteSpace=wrap;html=1;arcSize=40;fontColor=#000000;fillColor=#ffffc0;strokeColor=#ff0000;fontSize=4;" vertex="1" parent="1">
          <mxGeometry x="260" y="305" width="35" height="15" as="geometry" />
        </mxCell>
        <mxCell id="5t5Oaj507h6tdn1SH8KS-57" value="send count" style="rounded=1;whiteSpace=wrap;html=1;arcSize=40;fontColor=#000000;fillColor=#ffffc0;strokeColor=#ff0000;fontSize=4;" vertex="1" parent="1">
          <mxGeometry x="260" y="505" width="35" height="15" as="geometry" />
        </mxCell>
        <mxCell id="5t5Oaj507h6tdn1SH8KS-58" value="send count" style="rounded=1;whiteSpace=wrap;html=1;arcSize=40;fontColor=#000000;fillColor=#ffffc0;strokeColor=#ff0000;fontSize=4;" vertex="1" parent="1">
          <mxGeometry x="367.5" y="695" width="35" height="15" as="geometry" />
        </mxCell>
      </root>
    </mxGraphModel>
  </diagram>
</mxfile>
